<svg width="144" height="144" viewBox="0 0 144 144" fill="none" xmlns="http://www.w3.org/2000/svg">
<g clip-path="url(#clip0_574_2104)">
<rect width="144" height="144" rx="72" fill="#CCE2F0"/>
<path fill-rule="evenodd" clip-rule="evenodd" d="M102.28 71.4846C99.5688 80.3371 94.2599 87.6852 87.4563 92.1821L87.8047 96.1242L87.8027 96.2846L84.1249 128.78H60.7992L60.7023 128.097L56.1929 96.2286L56.36 92.2428C49.5219 87.7578 44.183 80.3976 41.4558 71.5218C41.3633 71.5305 41.2696 71.535 41.1748 71.535C39.4108 71.535 38.0133 69.9841 38.0133 68.1054V57.4745C38.0133 56.2152 38.6412 55.1026 39.5864 54.5058C41.0612 34.6589 54.9166 19.0606 71.8618 19.0606C88.7614 19.0606 102.589 34.5749 104.126 54.3448C105.23 54.8846 105.987 56.0905 105.987 57.4745V68.1054C105.987 69.9851 104.591 71.535 102.825 71.535C102.639 71.535 102.457 71.5177 102.28 71.4846Z" fill="#F7F7F7"/>
<path fill-rule="evenodd" clip-rule="evenodd" d="M86.6348 93.282C86.5021 100.378 80.0007 107.659 72 107.659C63.9645 107.659 57.4414 100.315 57.3639 93.1894C53.2004 94.251 46.845 97.4525 41.5994 102.803C36.5196 107.984 32.4805 115.772 32.4805 121.814V158.197H111.519V121.814C111.519 115.76 107.393 107.958 102.22 102.771C97.046 97.5843 90.8249 94.4261 86.6348 93.282Z" fill="#005B82"/>
<path fill-rule="evenodd" clip-rule="evenodd" d="M57.1011 93.4358C53.266 94.8364 46.8323 97.8979 41.9652 102.547C27.7382 99.3623 21.4151 91.7949 21.4151 91.7949C21.4151 91.7949 34.5227 78.9339 34.5306 56.4398V56.416C34.5306 30.077 48.6665 11.905 71.9557 11.905C95.2481 11.905 109.384 30.077 109.384 56.416H109.468C109.468 78.9259 122.585 91.7949 122.585 91.7949C122.585 91.7949 116.262 99.3623 102.035 102.543L102.013 102.547C97.3124 98.245 90.4944 94.9272 86.785 93.5244L86.7893 93.523L86.6419 91.8556L86.7216 91.7175C93.7206 87.214 99.1513 79.6272 101.77 70.4597C102.09 70.639 102.452 70.7399 102.835 70.7399C104.146 70.7399 105.207 69.5631 105.207 68.1055V57.4746C105.207 56.2274 104.43 55.1847 103.385 54.9096C103.384 54.8952 103.383 54.8808 103.382 54.8664C70.291 58.5808 58.3711 35.7585 57.3927 35.757C57.3927 35.757 46.4032 43.7077 41.151 53.1605C41.151 53.1605 40.3505 54.9449 40.3466 55.005C39.4474 55.379 38.8061 56.3426 38.8061 57.4746V68.1055C38.8061 69.5631 39.8695 70.7399 41.1775 70.7399C41.4674 70.7399 41.745 70.6824 42.0017 70.5769C44.6488 79.7488 50.114 87.3274 57.1458 91.8012L57.1719 91.8556L57.1056 93.4358H57.1011Z" fill="#F25C5C"/>
<path fill-rule="evenodd" clip-rule="evenodd" d="M60.698 62.5844C58.6554 62.7506 58.0837 59.4973 58.6992 57.3727C58.8149 56.9701 59.4911 55.1367 60.6882 55.1367C61.8838 55.1367 62.4118 56.1388 62.4852 56.3112C63.3646 58.3824 62.9327 62.4013 60.698 62.5844" fill="#262626"/>
<path fill-rule="evenodd" clip-rule="evenodd" d="M84.3887 62.5844C86.4314 62.7506 87.0031 59.4973 86.3876 57.3727C86.2719 56.9701 85.5957 55.1367 84.3986 55.1367C83.203 55.1367 82.675 56.1388 82.6016 56.3112C81.7222 58.3824 82.1541 62.4013 84.3887 62.5844" fill="#262626"/>
<path d="M73.3006 65.7905C74.5221 65.58 75.3563 65.7121 75.655 66.1225C76.7827 67.6737 76.422 69.3148 74.4873 70.662C73.4701 71.3701 72.07 71.6193 71.3287 71.2522C70.9663 71.0726 70.5424 71.2559 70.382 71.6616C70.2216 72.0673 70.3854 72.5417 70.7479 72.7213C71.9729 73.3281 73.8569 72.9928 75.2455 72.0262C77.8746 70.1954 78.4763 67.4578 76.7681 65.1081C76.0453 64.1151 74.7657 63.9125 73.0822 64.2026C72.6904 64.2701 72.4217 64.6803 72.482 65.1187C72.5423 65.5572 72.9088 65.858 73.3006 65.7905Z" fill="#262626"/>
<path d="M82.1339 76.4514C82.0621 76.6043 81.8976 76.8971 81.6332 77.2828C81.1856 77.9356 80.6236 78.5901 79.941 79.2004C77.9069 81.0191 75.2593 82.0708 71.8896 81.9746C68.6039 81.8808 65.9682 80.8454 63.9017 79.1757C63.1429 78.5626 62.5165 77.9061 62.0159 77.2517C61.7206 76.8658 61.5362 76.5732 61.4556 76.4207C61.2617 76.054 60.785 75.903 60.3909 76.0835C59.9968 76.264 59.8345 76.7076 60.0285 77.0743C60.1453 77.2952 60.3726 77.6561 60.7201 78.1103C61.2907 78.856 62.0002 79.5996 62.8589 80.2934C65.1917 82.1783 68.1729 83.3495 71.8408 83.4542C75.6604 83.5632 78.714 82.3503 81.043 80.2678C81.8218 79.5715 82.4619 78.8261 82.9742 78.0789C83.2856 77.6246 83.4882 77.2641 83.5916 77.0437C83.7673 76.6691 83.5835 76.2328 83.1809 76.0692C82.7784 75.9057 82.3096 76.0768 82.1339 76.4514Z" fill="#262626"/>
<path fill-rule="evenodd" clip-rule="evenodd" d="M100.512 128.789H77.1859C76.145 128.789 75.3021 127.933 75.3021 126.876V114.145C75.3021 113.088 76.145 112.231 77.1859 112.231H100.512C101.553 112.231 102.397 113.088 102.397 114.145V126.876C102.397 127.933 101.553 128.789 100.512 128.789" fill="white"/>
<path fill-rule="evenodd" clip-rule="evenodd" d="M90.2512 114.859H87.834C87.655 114.859 87.5107 114.715 87.5107 114.537V114.132C87.5107 113.955 87.655 113.81 87.834 113.81H90.2512C90.4303 113.81 90.5746 113.955 90.5746 114.132V114.537C90.5746 114.715 90.4303 114.859 90.2512 114.859" fill="#262626"/>
<path fill-rule="evenodd" clip-rule="evenodd" d="M88.3428 114.489H89.7432V110.725H88.3428V114.489Z" fill="#8F8F8F"/>
<path fill-rule="evenodd" clip-rule="evenodd" d="M98.2011 118.163H96.2969C96.2969 118.163 96.1657 118.163 96.1193 118.279L95.0655 121.505L94.0126 118.279C93.9662 118.163 93.8342 118.163 93.8342 118.163H90.173C90.0937 118.163 90.0273 118.229 90.0273 118.308V119.404C90.0273 118.535 89.1026 118.163 88.5611 118.163C87.3486 118.163 86.5369 118.962 86.2841 120.176C86.2704 119.371 86.2035 119.082 85.9865 118.786C85.8868 118.642 85.7428 118.52 85.5859 118.419C85.263 118.23 84.9729 118.163 84.3497 118.163H83.6179C83.6179 118.163 83.4856 118.163 83.4389 118.279L82.7731 119.929V118.308C82.7731 118.229 82.7071 118.163 82.628 118.163H80.9346C80.9346 118.163 80.8039 118.163 80.7563 118.279L80.0641 119.995C80.0641 119.995 79.995 120.167 80.153 120.167H80.8039V123.436C80.8039 123.517 80.8678 123.582 80.9493 123.582H82.628C82.7071 123.582 82.7731 123.517 82.7731 123.436V120.167H83.4274C83.8029 120.167 83.8824 120.177 84.0285 120.245C84.1165 120.278 84.1957 120.345 84.239 120.423C84.3275 120.589 84.3497 120.79 84.3497 121.38V123.436C84.3497 123.517 84.4149 123.582 84.4954 123.582H86.1043C86.1043 123.582 86.2862 123.582 86.3581 123.402L86.7147 122.521C87.1888 123.185 87.9692 123.582 88.939 123.582H89.1509C89.1509 123.582 89.3339 123.582 89.4063 123.402L90.0273 121.864V123.436C90.0273 123.517 90.0937 123.582 90.173 123.582H91.8154C91.8154 123.582 91.9966 123.582 92.0694 123.402C92.0694 123.402 92.7263 121.771 92.7288 121.759H92.7298C92.755 121.623 92.5836 121.623 92.5836 121.623H91.9974V118.825L93.8418 123.402C93.9138 123.582 94.0954 123.582 94.0954 123.582H96.0357C96.0357 123.582 96.2183 123.582 96.2903 123.402L98.3351 118.339C98.4059 118.163 98.2011 118.163 98.2011 118.163V118.163ZM90.0273 121.623H88.924C88.4849 121.623 88.1277 121.267 88.1277 120.828C88.1277 120.389 88.4849 120.031 88.924 120.031H89.2326C89.6706 120.031 90.0273 120.389 90.0273 120.828V121.623Z" fill="#C30000"/>
</g>
<defs>
<clipPath id="clip0_574_2104">
<rect width="144" height="144" rx="72" fill="white"/>
</clipPath>
</defs>
</svg>
