<svg xmlns="http://www.w3.org/2000/svg" width="142" height="142" fill="none"><circle cx="71" cy="71" r="71" fill="#CCE1FF"/><mask id="a" width="142" height="142" x="0" y="0" maskUnits="userSpaceOnUse" style="mask-type:alpha"><circle cx="71" cy="71" r="71" fill="#C8E2FF"/></mask><g mask="url(#a)"><path fill="#F1F1F1" fill-rule="evenodd" d="M103.677 80.667c-2.926 9.528-8.656 17.437-15.998 22.278l.376 4.243-.002.172-3.969 34.977H58.913l-.105-.735-4.866-34.302.18-4.29c-7.38-4.827-13.14-12.75-16.084-22.303-.1.01-.2.014-.303.014-1.903 0-3.411-1.67-3.411-3.691V65.587c0-1.355.677-2.553 1.697-3.195C37.613 41.03 52.565 24.24 70.851 24.24c18.237 0 33.158 16.7 34.818 37.978 1.191.582 2.007 1.88 2.007 3.37V77.03c0 2.023-1.506 3.691-3.411 3.691-.201 0-.397-.018-.588-.054Z" clip-rule="evenodd"/><path fill="#0056B4" fill-rule="evenodd" d="M86.793 104.129c-.143 7.638-7.16 15.474-15.793 15.474-8.672 0-15.71-7.905-15.794-15.574-4.494 1.143-11.352 4.588-17.013 10.347-5.481 5.577-9.84 13.96-9.84 20.462V174h85.294v-39.162c0-6.516-4.453-14.912-10.036-20.496-5.583-5.583-12.296-8.982-16.818-10.213Z" clip-rule="evenodd"/><path fill="#D05C4A" fill-rule="evenodd" d="M54.922 104.294c-4.139 1.508-11.081 4.803-16.334 9.807-15.353-3.428-22.176-11.573-22.176-11.573s14.145-13.843 14.153-38.055v-.025c0-28.35 15.255-47.91 40.387-47.91 25.136 0 40.391 19.56 40.391 47.91h.09c0 24.228 14.155 38.08 14.155 38.08s-6.823 8.145-22.176 11.568l-.023.005c-5.073-4.631-12.431-8.202-16.434-9.712l.005-.001-.16-1.795.087-.148c7.552-4.848 13.413-13.014 16.238-22.881a2.35 2.35 0 0 0 1.15.301c1.415 0 2.56-1.266 2.56-2.835V65.587c0-1.342-.838-2.465-1.966-2.76l-.004-.047c-35.71 3.998-48.573-20.567-49.628-20.569 0 0-11.86 8.558-17.527 18.733 0 0-.864 1.92-.868 1.985-.97.403-1.663 1.44-1.663 2.658V77.03c0 1.569 1.148 2.835 2.56 2.835.312 0 .612-.062.889-.175 2.856 9.872 8.754 18.03 16.342 22.845l.028.058-.071 1.701h-.005Z" clip-rule="evenodd"/><path fill="#262626" fill-rule="evenodd" d="M58.803 71.087c-2.204.18-2.82-3.323-2.156-5.61.124-.433.854-2.406 2.146-2.406 1.29 0 1.86 1.079 1.94 1.264.948 2.23.482 6.555-1.93 6.752M84.37 71.087c2.203.18 2.82-3.323 2.156-5.61-.125-.433-.854-2.406-2.146-2.406-1.29 0-1.86 1.079-1.94 1.264-.948 2.23-.482 6.555 1.93 6.752" clip-rule="evenodd"/><path fill="#262626" d="M72.403 74.538c1.319-.226 2.219-.084 2.541.357 1.217 1.67.828 3.437-1.26 4.887-1.098.762-2.609 1.03-3.409.635-.39-.194-.848.004-1.021.44-.173.437.003.948.395 1.141 1.322.653 3.355.292 4.853-.748 2.837-1.97 3.487-4.917 1.643-7.446-.78-1.07-2.16-1.287-3.977-.975-.423.073-.713.514-.648.986.065.472.46.796.883.723ZM81.936 86.013c-.078.164-.255.48-.54.895a11.522 11.522 0 0 1-1.827 2.064c-2.195 1.957-5.052 3.09-8.688 2.986-3.546-.101-6.39-1.216-8.62-3.013a12.245 12.245 0 0 1-2.035-2.07 7.193 7.193 0 0 1-.605-.895c-.21-.395-.724-.557-1.149-.363-.425.194-.6.672-.391 1.066.126.238.371.627.746 1.115a13.886 13.886 0 0 0 2.308 2.35c2.518 2.03 5.735 3.29 9.693 3.402 4.122.118 7.417-1.188 9.93-3.43.841-.749 1.532-1.551 2.085-2.355.336-.49.554-.877.666-1.115.19-.403-.009-.872-.443-1.048-.435-.176-.94.008-1.13.41Z"/></g></svg>