<svg xmlns="http://www.w3.org/2000/svg" width="50" height="48" fill="none"><path fill="#CCE2F0" d="M12.498 11.063h26.008v13H12.498v-13Z"/><path fill="#CCE2F0" d="M12.498 24.063h26.008v13H12.498v-13Z"/><path fill="#262626" fill-rule="evenodd" d="M15.997 1.896a.333.333 0 0 0-.333-.333H2.826a.333.333 0 0 0-.333.333v18.333c0 .184.149.334.333.334h12.838c.184 0 .333-.15.333-.334V1.896Zm1.5 0A1.834 1.834 0 0 0 15.664.063H2.826C1.813.063.992.882.992 1.895v18.333c0 1.013.821 1.834 1.834 1.834h12.838c1.012 0 1.833-.821 1.833-1.834V1.896Z" clip-rule="evenodd"/><path fill="#262626" fill-rule="evenodd" d="M5.41 15.73a.75.75 0 1 1 0 1.5.75.75 0 0 1 0-1.5Z" clip-rule="evenodd"/><path fill="#262626" fill-rule="evenodd" d="M5.41 16.105a.375.375 0 1 0 0 .75.375.375 0 0 0 0-.75Zm-1.125.375a1.125 1.125 0 1 1 2.25 0 1.125 1.125 0 0 1-2.25 0ZM9.078 15.73a.75.75 0 1 1 0 1.5.75.75 0 0 1 0-1.5Z" clip-rule="evenodd"/><path fill="#262626" fill-rule="evenodd" d="M9.078 16.105a.375.375 0 1 0 0 .75.375.375 0 0 0 0-.75Zm-1.125.375a1.125 1.125 0 1 1 2.25 0 1.125 1.125 0 0 1-2.25 0ZM12.747 15.73a.75.75 0 1 1 0 1.5.75.75 0 0 1 0-1.5Z" clip-rule="evenodd"/><path fill="#262626" fill-rule="evenodd" d="M12.747 16.105a.375.375 0 1 0 0 .75.375.375 0 0 0 0-.75Zm-1.125.375a1.125 1.125 0 1 1 2.25 0 1.125 1.125 0 0 1-2.25 0ZM5.41 12.063a.75.75 0 1 1 0 1.5.75.75 0 0 1 0-1.5Z" clip-rule="evenodd"/><path fill="#262626" fill-rule="evenodd" d="M5.41 12.438a.375.375 0 1 0 0 .75.375.375 0 0 0 0-.75Zm-1.125.374a1.125 1.125 0 1 1 2.25 0 1.125 1.125 0 0 1-2.25 0ZM9.078 11.98a.75.75 0 1 1 0 1.5.75.75 0 0 1 0-1.5Z" clip-rule="evenodd"/><path fill="#262626" fill-rule="evenodd" d="M9.078 12.354a.375.375 0 1 0 0 .75.375.375 0 0 0 0-.75Zm-1.125.376a1.125 1.125 0 1 1 2.25 0 1.125 1.125 0 0 1-2.25 0ZM12.747 11.98a.75.75 0 1 1 0 1.5.75.75 0 0 1 0-1.5Z" clip-rule="evenodd"/><path fill="#262626" fill-rule="evenodd" d="M12.747 12.354a.375.375 0 1 0 0 .75.375.375 0 0 0 0-.75Zm-1.125.376a1.125 1.125 0 1 1 2.25 0 1.125 1.125 0 0 1-2.25 0ZM5.41 8.313a.75.75 0 1 1 0 1.5.75.75 0 0 1 0-1.5Z" clip-rule="evenodd"/><path fill="#262626" fill-rule="evenodd" d="M5.41 8.688a.375.375 0 1 0 0 .75.375.375 0 0 0 0-.75Zm-1.125.374a1.125 1.125 0 1 1 2.25 0 1.125 1.125 0 0 1-2.25 0ZM9.078 8.313a.75.75 0 1 1 0 1.5.75.75 0 0 1 0-1.5Z" clip-rule="evenodd"/><path fill="#262626" fill-rule="evenodd" d="M9.078 8.688a.375.375 0 1 0 0 .75.375.375 0 0 0 0-.75Zm-1.125.374a1.125 1.125 0 1 1 2.25 0 1.125 1.125 0 0 1-2.25 0ZM12.747 8.313a.75.75 0 1 1 0 1.5.75.75 0 0 1 0-1.5Z" clip-rule="evenodd"/><path fill="#262626" fill-rule="evenodd" d="M12.747 8.688a.375.375 0 1 0 0 .75.375.375 0 0 0 0-.75Zm-1.125.374a1.125 1.125 0 1 1 2.25 0 1.125 1.125 0 0 1-2.25 0ZM13.83 5.813H4.66v-1.5h9.17v1.5ZM49.007 28.282H38.378v-1.5h10.629v1.5ZM34.626 28.282H23.998v-1.5h10.628v1.5Z" clip-rule="evenodd"/><path fill="#262626" fill-rule="evenodd" d="M28.375 32.636V22.062h1.5v10.574h-1.5ZM32.405 47.296 24.89 39.82l1.064-1.058 7.515 7.476-1.064 1.058Z" clip-rule="evenodd"/><path fill="#262626" fill-rule="evenodd" d="m24.89 45.976 7.515-7.476 1.064 1.058-7.516 7.476-1.063-1.058ZM49.007 43.831H38.38v-1.5h10.628v1.5ZM43.693 38.233c.518 0 .938.418.938.933 0 .516-.42.933-.938.933a.935.935 0 0 1-.938-.933c0-.515.42-.933.938-.933Z" clip-rule="evenodd"/><path fill="#262626" fill-rule="evenodd" d="M43.693 38.608a.56.56 0 0 0-.562.558c0 .307.25.558.562.558a.56.56 0 0 0 .563-.558.56.56 0 0 0-.563-.558Zm-1.313.558c0-.724.59-1.308 1.313-1.308a1.31 1.31 0 0 1 1.313 1.308 1.31 1.31 0 0 1-1.313 1.308 1.31 1.31 0 0 1-1.313-1.308ZM43.693 45.696c.518 0 .938.418.938.933 0 .516-.42.933-.938.933a.935.935 0 0 1-.938-.933c0-.515.42-.933.938-.933Z" clip-rule="evenodd"/><path fill="#262626" fill-rule="evenodd" d="M43.693 46.071a.56.56 0 0 0-.562.558c0 .307.25.558.562.558a.56.56 0 0 0 .563-.558.56.56 0 0 0-.563-.558Zm-1.313.558c0-.724.59-1.308 1.313-1.308a1.31 1.31 0 0 1 1.313 1.308 1.31 1.31 0 0 1-1.313 1.308 1.31 1.31 0 0 1-1.313-1.308Z" clip-rule="evenodd"/></svg>