<svg xmlns="http://www.w3.org/2000/svg" width="61" height="61" fill="none">
<path fill="#FFC166" d="M25.69 13.521A6.76 6.76 0 1 0 25.69 0a6.76 6.76 0 0 0 0 13.521Z"/>
<path fill="#D05C4A" d="M24.677 56.789c19.865 0 21.295-7.265 21.295-16.226 0-8.96-.724-17.532-20.424-17.577-21.296-.049-22.167 8.616-22.167 17.577 0 8.961 1.43 16.226 21.296 16.226Z"/>
<path fill="#262626" d="M8.79 39.887c.746 0 1.352-.908 1.352-2.028s-.606-2.028-1.352-2.028c-.747 0-1.352.908-1.352 2.028s.605 2.028 1.352 2.028Z"/>
<path fill="#D05C4A" d="M1.352 37.86h4.056c.747 0 1.353.605 1.353 1.352v6.76c0 .747-.606 1.352-1.353 1.352H1.352A1.352 1.352 0 0 1 0 45.972v-6.76c0-.747.605-1.353 1.352-1.353ZM11.19 20.09l6.388 7.628H8.789v-6.8c0-.725.605-1.313 1.352-1.313.407 0 .793.178 1.05.485ZM12.03 50.704l4.195 2.072-3.42 6.43c-.458.86-1.464 1.203-2.31.785-.845-.417-1.244-1.454-.916-2.378l2.452-6.909Z"/><path fill="#E18071" d="M8.788 47.324a3.38 3.38 0 1 0 0-6.76 3.38 3.38 0 0 0 0 6.76Z"/><path fill="#D05C4A" d="m37.996 50.704-4.194 2.072 3.42 6.43c.458.86 1.464 1.203 2.31.785.845-.417 1.244-1.454.916-2.378l-2.452-6.909ZM46.31 43.268c.933 0 1.69-1.21 1.69-2.704 0-1.494-.757-2.705-1.69-2.705-.934 0-1.69 1.211-1.69 2.705 0 1.493.756 2.704 1.69 2.704Z"/><path fill="#262626" d="M17.578 28.172c0-.652.47-1.206 1.116-1.294 1.484-.2 4.24-.512 6.997-.512 2.756 0 5.512.312 6.996.512a1.295 1.295 0 0 1 1.117 1.294c0 .824-.74 1.457-1.558 1.353-1.55-.197-4.053-.455-6.555-.455-2.503 0-5.006.258-6.556.455-.817.104-1.557-.529-1.557-1.353Z"/><path fill="#FFC166" d="M21.086 28.394a6.56 6.56 0 0 1-2.156-4.858c0-3.664 3.026-6.635 6.76-6.635s6.76 2.97 6.76 6.635a6.56 6.56 0 0 1-2.155 4.858 49.779 49.779 0 0 0-9.21 0Z"/><path fill="#D47B00" fill-rule="evenodd" d="M18.963 24.338a6.761 6.761 0 0 1 13.454 0 6.76 6.76 0 1 0-13.454 0ZM18.963 7.437a6.761 6.761 0 0 1 13.454 0 6.76 6.76 0 1 0-13.454 0Z" clip-rule="evenodd"/></svg>